<svg xmlns="http://www.w3.org/2000/svg" viewBox="0 0 120 120" width="120" height="120">
  <defs>
    <linearGradient id="bg-marcus" x1="0%" y1="0%" x2="100%" y2="100%">
      <stop offset="0%" stop-color="#F59E0B"/>
      <stop offset="100%" stop-color="#EA580C"/>
    </linearGradient>
    <linearGradient id="skin-marcus" x1="0%" y1="0%" x2="100%" y2="100%">
      <stop offset="0%" stop-color="#A16207"/>
      <stop offset="100%" stop-color="#78350F"/>
    </linearGradient>
  </defs>
  <rect width="120" height="120" rx="60" fill="url(#bg-marcus)"/>
  <!-- Torso -->
  <path d="M25 120 C25 90, 45 80, 60 80 C75 80, 95 90, 95 120 Z" fill="#3B82F6"/>
  <path d="M48 80 L60 96 L72 80 Z" fill="#1E293B"/>
  <!-- Neck -->
  <rect x="52" y="65" width="16" height="20" rx="4" fill="#78350F"/>
  <!-- Head -->
  <ellipse cx="60" cy="52" rx="21" ry="25" fill="url(#skin-marcus)"/>
  <!-- Hair & Beard -->
  <path d="M38 42 C38 25, 48 20, 60 20 C72 20, 82 25, 82 42 C82 32, 72 26, 60 26 C48 26, 38 32, 38 42 Z" fill="#1E293B"/>
  <!-- Short Beard -->
  <path d="M45 56 C45 74, 75 74, 75 56 C75 68, 45 68, 45 56 Z" fill="#1E293B"/>
  <!-- Eyes -->
  <circle cx="50" cy="50" r="2" fill="#FFFFFF"/>
  <circle cx="70" cy="50" r="2" fill="#FFFFFF"/>
  <circle cx="50.5" cy="50" r="1.2" fill="#0F172A"/>
  <circle cx="70.5" cy="50" r="1.2" fill="#0F172A"/>
  <!-- Smile -->
  <path d="M53 63 Q60 68 67 63" fill="none" stroke="#FEF3C7" stroke-width="2" stroke-linecap="round"/>
</svg>
